<svg xmlns="http://www.w3.org/2000/svg" viewBox="0 0 1536 1024" width="1536" height="1024">

	<style>
		.s0 { fill: #fdfdfd } 
		.s1 { fill: #033766 } 
		.s2 { fill: #f46217 } 
		.s3 { opacity: .5;fill: none;stroke: #000000;stroke-miterlimit:100 } 
	</style>
	
	<defs>
		<mask id="cutoutMask">
			<rect width="100%" height="100%" fill="white"/>
			<path id="Cutouts" d="m233.58 713.25c-7.51 15.54-13.53 28.36-13.37 28.49 0.16 0.13 7.95 0.13 17.3 0l17.01-0.24c-4.2-37.98-5.51-50.69-5.61-52.75-0.11-2.06-0.53-3.75-0.93-3.75-0.4 0-6.88 12.71-14.4 28.25zm343.92 2.13c-1.65 0.71-3.51 2.38-4.14 3.71-0.62 1.33-1.45 4.21-1.84 6.41-0.38 2.2-0.88 4.79-1.11 5.75-0.38 1.62 0.98 1.75 18.09 1.75 11.33 0 18.69-0.39 19-1 0.27-0.55 0.8-4.04 1.16-7.75 0.62-6.35 0.52-6.85-1.75-8.51-1.99-1.45-4.49-1.75-14.41-1.71-7.54 0.03-13.11 0.53-15 1.35zm223.8 0.27c-1.21 0.25-3.24 1.61-4.5 3.02-1.56 1.74-2.85 5.33-4.01 11.2-0.93 4.74-2.85 14.82-4.25 22.38-1.39 7.56-2.54 14.42-2.54 15.25 0 0.83 0.9 2.4 2 3.5 1.8 1.8 3.33 2 15.5 2 7.42 0 14.62-0.45 16-1 1.37-0.55 3.01-2.01 3.64-3.25 0.62-1.24 2.86-11.25 4.98-22.25 2.11-11 3.96-21.67 4.11-23.72 0.18-2.52-0.31-4.3-1.51-5.5-1.51-1.5-3.78-1.8-14.5-1.93-7-0.08-13.71 0.05-14.92 0.3zm246.78 0.42c-1.88 0.49-4.24 1.91-5.23 3.16-1.18 1.47-3.25 9.47-5.89 22.77-2.23 11.27-4.15 21.95-4.26 23.72-0.12 1.98 0.49 3.91 1.58 5 1.51 1.51 3.91 1.82 15.75 2.03l13.97 0.25c5.91-5.35 6.29-6.66 10.06-26.5 2.19-11.55 3.86-22.79 3.71-24.98-0.21-3.09-0.83-4.25-2.77-5.23-1.57-0.79-6.41-1.23-13-1.19-5.78 0.05-12.04 0.48-13.92 0.97zm112.17 0.47c-1.79 0.8-3.76 2.47-4.38 3.71-0.62 1.24-2.43 9.23-4.02 17.75-1.59 8.52-3.44 19.03-4.12 23.35-1.23 7.83-1.23 7.85 1.27 9.79 2.2 1.71 4.14 1.94 16 1.94 12-0.01 13.81-0.24 16.25-2.05 1.51-1.11 3.17-3.49 3.68-5.28 0.51-1.79 2.6-12.25 4.64-23.25 2.17-11.71 3.45-21.14 3.07-22.75-0.38-1.64-1.65-3.15-3.14-3.75-1.38-0.55-7.79-0.98-14.25-0.96-8.08 0.03-12.76 0.49-15 1.5z" fill="black"/>
		</mask>
	</defs>
	<g id="Background" mask="url(#cutoutMask)">
		<path id="Path 0" fill="none" d="m0 512v512h1536v-1024h-1536z"/>
		<path id="Path 1" fill-rule="evenodd" class="s1" d="m546.05 220.99l523.61 0.51 4.92 3.04c3.15 1.95 5.82 4.65 9.92 11.96l0.59 101-6.3 0.61c-3.46 0.34-8.73 1.69-11.71 3-3.48 1.54-6.98 4.18-9.81 7.39-2.42 2.75-5.21 7.25-6.2 10-1 2.75-2.12 7.25-2.5 10-0.39 2.87-0.19 7.35 0.48 10.5 0.64 3.02 2.2 7.75 3.48 10.5 1.27 2.75 4.26 6.77 6.64 8.94 2.38 2.17 6.36 4.82 8.83 5.89 2.47 1.08 7.32 2.23 17.02 3.17l-0.01 47.75c-0.01 29.21-0.41 49.4-1.04 52-0.56 2.34-2.47 6-4.25 8.14-1.77 2.15-5.02 4.85-7.22 6-3.76 1.98-5.72 2.13-62 2.63l-6.5-6.29c-3.58-3.47-8.08-7.52-13.5-11.71h36c30.42 0 36.35-0.24 40.5-3.02v-80l-2.75-1c-1.51-0.55-4.64-2.02-6.96-3.25-2.32-1.24-6.14-3.86-8.5-5.83-2.36-1.97-5.98-6.02-8.06-9-2.07-2.98-4.88-8.46-6.25-12.17-1.37-3.72-2.76-10.23-3.11-14.5-0.35-4.4-0.13-10.78 0.52-14.75 0.64-3.89 2.74-10.33 4.74-14.5 2.57-5.38 5.46-9.35 10.23-14.06 4.76-4.7 8.55-7.39 20.16-12.44l-0.03-39.5c-0.01-23.13-0.41-40.12-0.97-41-0.84-1.33-32.6-1.56-544.52-2.5l-0.25-2.75c-0.14-1.51-0.02-2.75 0.25-2.75 0.27 0 1.85 0.68 3.5 1.5 2.72 1.36 3.39 1.33 7.25-0.34 2.34-1.01 5.77-3.15 7.63-4.75 1.86-1.6 4.01-4.15 4.78-5.67zm307.45 53.05c4.18-0.01 7.51 0.69 11 2.3 2.78 1.29 6.69 4.28 8.8 6.74 2.3 2.68 4.41 6.59 5.36 9.93 1.04 3.69 1.32 6.97 0.84 10-0.39 2.47-1.51 6.07-2.48 8-0.98 1.92-3.75 5.27-6.15 7.43-2.4 2.16-5.83 4.52-7.62 5.25-1.79 0.72-6.06 1.31-9.5 1.31-4.48-0.01-7.67-0.68-11.25-2.38-2.75-1.3-6.21-3.66-7.69-5.24-1.48-1.58-3.61-4.9-4.73-7.37-1.32-2.91-2.04-6.63-2.05-10.5-0.01-4.19 0.69-7.51 2.31-11 1.27-2.75 3.85-6.31 5.74-7.91 1.88-1.6 5.22-3.72 7.42-4.73 2.43-1.11 6.34-1.83 10-1.83zm-389.75 7.93c0.96-0.02 3.55 1.35 5.75 3.04 2.29 1.75 5.17 3.05 6.75 3.03 1.79-0.02 2.75 0.49 2.75 1.47 0 0.82 0.22 1.95 0.5 2.5 0.27 0.55 0.5 7.63 0.5 30.5l5.67 3c3.12 1.65 8.11 5.47 11.1 8.5 3.21 3.25 6.82 8.35 8.84 12.5 1.88 3.85 4.07 10.15 4.88 14 0.81 3.85 1.48 8.91 1.49 11.25 0.01 2.33-0.65 7.73-1.48 12-0.82 4.26-2.94 10.67-4.72 14.25-1.78 3.57-5.55 8.97-8.38 12-2.83 3.02-7.83 7.07-17.09 12.5l-0.66 38.75c-0.48 28.37-0.34 39.35 0.5 41 0.63 1.23 1.64 2.58 2.25 2.98 0.6 0.4 12.46 0.74 51.6 0.77v18l-56.67-0.5-4.91-3.01c-3.73-2.27-5.59-4.34-10.45-13.99l0.03-99.5 2.75 0.02c1.51 0.01 5.2-0.78 8.19-1.75 3.2-1.05 7.32-3.46 10-5.86 2.84-2.55 5.69-6.51 7.56-10.5 2.73-5.85 3-7.34 3-16.91 0-8.46-0.4-11.38-2.05-15-1.13-2.48-4.06-6.69-6.5-9.37-2.45-2.68-6.25-5.77-8.45-6.87-2.2-1.1-6.37-2.29-14.52-3.26l0.01-27.75c0.01-25.75 0.13-27.76 1.76-27.79zm282.75 20.06c2.75 0 17.15 2.23 32 4.96 14.85 2.74 29.02 5.68 31.5 6.55 2.47 0.87 6.92 3.46 9.88 5.77 2.97 2.31 7.05 6.22 9.08 8.7 2.03 2.47 9.28 12.27 16.11 21.78 6.84 9.5 12.65 17.28 12.93 17.28 0.27 0 4.1-2.79 8.5-6.21 4.4-3.42 11.94-9.51 16.75-13.54 5.36-4.48 10.01-7.55 12-7.93 2.57-0.48 3.92-0.06 6.5 2 1.79 1.44 3.49 3.85 3.79 5.37 0.3 1.51 0.13 3.87-0.38 5.25-0.51 1.37-9.41 11.11-19.79 21.65-12.06 12.23-20.23 19.72-22.62 20.75-2.06 0.88-4.88 1.6-6.25 1.6-1.38 0-4.19-0.7-6.25-1.54-2.19-0.9-8.33-6.11-25.75-23.51l-2.61 2.77c-1.44 1.53-6.62 7.95-11.51 14.28-4.89 6.32-10.24 13.27-11.89 15.44-1.94 2.56-2.55 4.05-1.74 4.25 0.69 0.17 1.25 0.76 1.25 1.31 0 0.65-10.33 0.78-30.25 0.37-16.64-0.35-30.48-0.78-30.75-0.97-0.28-0.18 2.39-4.96 5.93-10.62 3.54-5.66 13.78-21.65 22.75-35.53 8.98-13.89 16.21-25.44 16.07-25.66-0.14-0.23-7.23-2.28-15.75-4.56-8.53-2.29-16.05-4.01-16.71-3.84-0.67 0.17-8.88 7.62-18.25 16.56-16.2 15.45-17.24 16.25-21.04 16.25-2.94 0-4.67-0.67-6.5-2.5-1.76-1.76-2.51-3.62-2.54-6.25-0.04-3.3 1.39-5.59 11.66-18.75 6.43-8.25 13.64-17.62 16.03-20.83 2.38-3.21 6.24-6.91 8.59-8.24 2.93-1.66 5.81-2.42 9.26-2.41zm-21.35 125.98h39.17c21.55 0 42.96 0.34 55.98 1.5l8.1 7.11c4.45 3.91 8.89 8.3 9.85 9.75 0.96 1.45 2 4.77 2.31 7.39 0.42 3.53 0.1 5.57-1.25 7.98-1 1.78-12.23 14.38-24.96 28-12.74 13.62-25.9 27.35-29.25 30.52-5.03 4.74-6.72 5.75-9.6 5.75-2.46 0-4.47-0.87-6.75-2.92-2.61-2.35-3.25-3.68-3.23-6.75 0.03-2.88 1.04-5.2 4.08-9.33 2.23-3.03 10.82-15.18 34.1-48.5l-17.99-11c-9.9-6.05-18.54-11-19.2-11-0.66 0-8.7 9-34.55 40l-36.73 22.76c-30.93 19.17-37.32 22.76-40.48 22.75-2.77-0.01-4.45-0.73-6.42-2.76-2.34-2.41-2.59-3.31-2.08-7.25 0.46-3.58 1.38-5.23 4.45-8 2.14-1.93 16.13-13.63 58.31-48.5zm-101.65 54.18l34-0.13-4.06 3.72c-2.23 2.05-6.51 5.78-9.5 8.29-2.99 2.5-6.21 6.1-7.15 8-0.94 1.89-2 5.46-2.35 7.94-0.36 2.47-0.15 6.41 0.45 8.75 0.61 2.33 2.44 5.71 4.07 7.5 1.62 1.78 2.96 3.7 2.96 4.25 0 0.55-3.29 4.6-7.33 9-4.03 4.4-12.86 14.3-19.62 22-6.75 7.7-19.64 22.21-44.97 50.5l-61.75-0.03c-61.38-0.02-61.74-0.03-59.25-1.97 1.37-1.07 21.62-15.76 45-32.64 23.37-16.89 52.85-38.23 65.5-47.44 12.65-9.21 32.22-23.72 43.5-32.24zm139.5-0.19l0.04 7.75c0.04 6.03-0.32 8.08-1.63 9.25-0.92 0.83-2.96 3.75-4.54 6.5-2.19 3.85-2.85 6.27-2.84 10.5 0.01 3.19 0.78 7.18 1.85 9.5 1.01 2.2 3.04 5.13 7.19 9l-1.08 32.5c-0.59 17.88-1.17 35.35-1.49 45.17l-82.5-0.14c-45.38-0.07-82.59-0.22-82.71-0.33-0.11-0.11 6.33-8.3 14.3-18.2 7.98-9.9 21.8-27.11 30.71-38.24 10.91-13.62 17.02-20.45 18.7-20.89 1.37-0.36 4.07-1.44 6-2.4 1.92-0.96 14.3-8.38 27.5-16.48 13.2-8.11 29.17-18.02 35.5-22.02 6.32-4.01 12.35-8.22 13.4-9.37 1.68-1.86 3.02-2.1 21.6-2.1zm77.75 0.03c1.28-0.02 2.83 0.94 3.61 2.22 0.75 1.24 13.24 17.1 27.76 35.25 14.52 18.15 32.26 40.2 39.43 49 7.17 8.8 17.85 21.96 23.74 29.25 5.89 7.29 10.71 13.48 10.71 13.75 0 0.28-37.13 0.5-165 0.5l-0.48-10.25c-0.27-5.64-0.72-22.29-1-37-0.41-21-0.25-26.75 0.73-26.76 0.69-0.01 3.05-0.89 5.25-1.96 2.67-1.29 12.14-10.58 28.5-27.95 17.75-18.85 25.12-26.03 26.75-26.05zm73.75-0.04l25.5 18.33c14.02 10.08 36.52 26.15 50 35.71 13.47 9.56 42.5 30.18 64.5 45.82 22 15.65 40.45 28.84 41 29.32 0.57 0.49-26.04 0.85-124 0.82l-14.5-16.15c-7.98-8.88-20.58-22.96-28-31.3-7.43-8.34-25.88-29.48-41-46.99-15.13-17.51-28.11-32.68-28.85-33.7-1.31-1.79-0.43-1.85 55.35-1.86zm-682.09 170.01h43.59l0.55 5.75c0.3 3.16 4.58 35.56 9.5 72 4.92 36.44 8.95 66.7 8.95 67.25 0 0.64-6.25 0.91-34.47 0.5l-1.7-13.5c-0.94-7.42-1.74-13.84-1.77-14.25-0.03-0.41-11.42-0.76-50.56-0.8l-14 28.55-17.25 0.25c-9.49 0.14-17.24-0.09-17.23-0.5 0.02-0.41 11.04-22.12 24.5-48.25 13.46-26.12 30.19-58.64 37.18-72.25zm138.84 39.03c16.16-0.02 26.4 0.39 29.5 1.18q4.75 1.2 8.9 5.25c2.5 2.44 4.58 5.63 5.24 8.04 0.6 2.2 1.1 5.24 1.1 6.75 0.01 1.51-0.46 5.11-1.04 8-0.57 2.89-1.25 6.26-1.5 7.5-0.44 2.21-0.72 2.25-28.95 2.24v-6.2c0-5.6-0.24-6.31-2.5-7.48-1.57-0.8-6.49-1.28-13.25-1.29-7.36-0.01-11.85 0.45-14.25 1.48-1.93 0.83-4.01 2.51-4.64 3.75-0.63 1.24-2.88 11.14-5 22-2.12 10.86-3.86 21.78-3.86 24.25 0 3.5 0.44 4.72 2 5.5 1.1 0.55 8.1 1 15.55 1 13.12 0 13.62-0.08 16-2.5 1.35-1.37 2.71-4.19 3.03-6.25 0.32-2.06 0.77-4.31 1-5 0.31-0.92 4.21-1.25 29.42-1.25l-0.61 3.25c-0.33 1.79-1.23 6.06-2 9.5-0.76 3.44-2.29 8.05-3.39 10.25-1.1 2.2-3.91 5.82-6.25 8.03-2.34 2.22-6.73 5.03-9.75 6.24-5.2 2.09-6.99 2.21-33 2.22-27.36 0.01-27.53 0-32.43-2.49-2.72-1.37-5.97-3.85-7.23-5.5-1.25-1.65-2.83-5.47-3.5-8.5-1.14-5.14-0.87-7.36 4.05-34 2.9-15.67 6.14-30.97 7.21-34 1.06-3.02 3.22-7.07 4.79-9 1.57-1.92 4.54-4.85 6.61-6.5 2.07-1.65 6.07-3.77 8.88-4.72 4.28-1.43 9.19-1.72 29.87-1.75zm112.75 0.07c24.09-0.03 25.8 0.09 30.91 2.18 3.43 1.41 6.53 3.62 8.5 6.06 2.98 3.71 3.09 4.2 3.09 13.5 0 5.32-0.34 11.35-1.5 17.16h-29l0.25-6.19c0.23-5.72 0.06-6.3-2.25-7.49-1.58-0.81-6.47-1.29-13.25-1.3-7.36-0.01-11.85 0.45-14.25 1.48-1.93 0.83-4.02 2.51-4.65 3.75-0.63 1.24-3.1 12.15-5.49 24.25-2.4 12.1-4.36 22.56-4.36 23.25 0 0.69 0.9 2.15 2 3.25 1.79 1.8 3.33 2 15 2 8.39 0 13.9-0.44 15.53-1.25 1.38-0.69 3.18-2.94 4-5 0.81-2.06 1.47-4.87 1.47-8.75l29.5 0.04-1.27 7.23c-0.69 3.98-1.76 8.81-2.36 10.73-0.6 1.93-2.36 5.53-3.89 8-1.54 2.48-4.53 5.72-6.64 7.21-2.11 1.48-5.64 3.5-7.84 4.48-3.42 1.53-7.73 1.84-29.5 2.16-21.18 0.3-26.47 0.09-31.25-1.24-3.5-0.98-7.22-2.92-9.5-4.97-2.07-1.86-4.3-5.11-4.98-7.25-0.68-2.14-1.24-5.91-1.24-8.39 0-2.47 2.25-16.2 5-30.5 2.76-14.3 5.5-27.8 6.09-30 0.6-2.2 1.77-5.35 2.59-7 0.83-1.65 3.37-4.95 5.65-7.33 2.28-2.38 5.49-5.04 7.14-5.92 1.65-0.87 4.8-2.15 7-2.85 2.78-0.88 11.8-1.28 29.5-1.3zm111.75-0.03c22.57-0.06 25.81 0.14 30.5 1.86 2.89 1.06 6.63 3.43 8.33 5.25 2.08 2.25 3.51 5.26 4.43 9.32 1.25 5.58 1.15 7.06-1.44 21-1.53 8.25-3.3 17.15-5.07 24.53l-66-0.07-1.26 5.77c-0.69 3.17-1.25 7.23-1.25 9.02 0.01 1.79 0.68 3.93 1.51 4.75 1.19 1.19 4.42 1.5 15.75 1.51 11.05 0.01 14.76-0.33 16.5-1.5 1.25-0.84 2.7-3.29 4.25-9.51h29l-0.58 2.75c-0.31 1.51-1.4 5.68-2.42 9.25-1.01 3.58-3.36 8.53-5.21 11-2.35 3.13-5.47 5.57-17.09 11.5h-56.34l-5.85-3c-4.63-2.37-6.35-3.94-8.2-7.5-1.8-3.44-2.35-6.08-2.33-11.25 0.01-4.04 2.18-17.68 5.4-34 3.32-16.75 6.25-28.98 7.62-31.75 1.22-2.47 3.3-5.96 4.61-7.75 1.32-1.79 4.53-4.47 7.14-5.96 2.61-1.48 6.55-3.25 8.75-3.93 2.68-0.82 12.34-1.25 29.25-1.29zm110.5 0c20.73-0.06 25.44 0.2 29 1.58 2.34 0.91 5.53 2.82 7.09 4.25 1.56 1.43 3.53 3.95 4.38 5.6 1.15 2.24 1.43 5.15 1.12 11.5-0.23 4.68-0.74 9.06-1.13 9.75-0.52 0.91-4.55 1.25-28.71 1.25l0.49-3.36c0.35-2.37-0.07-4.07-1.41-5.75-1.83-2.3-2.39-2.39-15.08-2.39-13.12 0-13.18 0.01-15.59 2.75-1.69 1.93-2.41 3.95-2.41 6.75 0 3.15 0.48 4.25 2.25 5.14 1.24 0.63 10.35 2.66 20.25 4.52 9.9 1.86 19.57 3.87 21.5 4.48 1.92 0.61 4.96 1.95 6.75 2.98 1.79 1.04 4.15 3.68 5.25 5.88 1.17 2.34 1.99 5.98 1.99 8.75-0.01 2.61-0.84 8.8-1.84 13.75-1.02 5.03-3.11 11.36-4.74 14.35-1.6 2.94-4.49 6.52-6.41 7.95-1.93 1.43-5.53 3.52-8 4.65-4.2 1.92-6.39 2.05-61.5 2.05l-5.25-2.75c-3.06-1.6-6.06-4.1-7.19-6-1.07-1.79-2.24-5.05-2.61-7.25-0.37-2.2-0.17-7.26 1.55-18.5h29l-0.25 4.46c-0.15 2.63 0.28 4.98 1.05 5.75 0.87 0.87 5.24 1.4 13.5 1.62 6.71 0.18 13.66 0.07 15.45-0.25 1.83-0.33 3.87-1.56 4.68-2.83 0.78-1.24 1.74-3.82 2.12-5.75 0.55-2.7 0.28-3.97-1.17-5.56-1.46-1.6-5.69-2.79-18.88-5.31-9.35-1.79-19.48-3.9-22.5-4.7-3.18-0.85-7.29-2.93-9.75-4.94-3.48-2.86-4.46-4.44-5.4-8.74-0.94-4.31-0.83-6.85 0.58-14.25 0.94-4.95 2.75-11.25 4.02-14 1.26-2.75 3.81-6.51 5.67-8.36 1.86-1.85 4.73-4.07 6.38-4.92 1.65-0.86 4.8-2.12 7-2.82 2.75-0.87 11.74-1.29 28.75-1.33zm113.75 0.19c27.12 0.24 27.57 0.28 32.43 2.74 2.72 1.38 5.97 3.85 7.23 5.5 1.25 1.65 2.83 5.48 3.49 8.5 1.11 5.04 0.89 7.24-2.57 26-2.08 11.28-4.67 25-5.76 30.5-1.09 5.5-3.03 12.25-4.31 15-1.36 2.92-4.55 7-7.67 9.8-3.1 2.79-7.44 5.51-10.34 6.5-4.23 1.44-9.25 1.7-32.5 1.7-21.46 0-28.38-0.32-31.5-1.44-2.2-0.8-5.52-2.82-7.37-4.5-1.85-1.68-4-4.63-4.77-6.56-0.78-1.92-1.4-6.2-1.4-9.5 0.01-3.3 1.57-14.1 3.47-24 1.9-9.9 3.96-20.92 4.56-24.5 0.61-3.57 1.97-9.2 3.03-12.5 1.05-3.3 3.28-7.91 4.95-10.25 1.67-2.34 4.92-5.49 7.23-7 2.32-1.51 6.48-3.53 9.25-4.49 4.4-1.51 8.6-1.71 32.55-1.5z"/>
		<path id="Path 2" class="s2" d="m491.16 194.85l-0.16 15.15h30v-29c-10.46-0.01-17.14-0.3-21.59-0.65l-8.09-0.65zm-57.67 11.4c-0.33 1.79-0.46 7.98-0.29 13.75l0.3 10.5 27.5 0.5v-28h-26.92zm42.52 38.5c0 3.16-0.34 7.9-0.75 10.52l-0.76 4.76 21.5-0.03v-21h-20zm42.04 27.21l-0.05 8.04h16l-0.5-15.5-15.41-0.58zm-0.04 35.54v7.5h16v-15h-16zm0 34.5v8h16v-16h-16zm-0.18 30.25c-0.2 1.79-0.25 5.39-0.1 8l0.28 4.75h16v-16h-15.81zm34.16 18.5l-0.02 9.75c25.22 7.33 38.61 10.8 46.04 12.45 7.42 1.64 21.82 4.33 32 5.98 10.17 1.64 25.02 3.66 33 4.49 7.97 0.84 21.25 1.97 29.5 2.52 8.25 0.56 23.77 1.24 34.5 1.53 10.72 0.28 43.57 0.76 73 1.06 31.88 0.33 61.58 0.12 73.5-0.5 11-0.57 27.42-1.72 36.5-2.55 9.07-0.83 23.02-2.44 31-3.57 7.97-1.14 20.12-3.18 27-4.55 6.87-1.37 19.47-4.23 28-6.36 8.52-2.13 16.73-4.35 18.25-4.93 2.73-1.06 2.75-1.13 2.75-10.57 0-5.23-0.34-9.5-0.75-9.5-0.42 0-5.48 1.35-11.25 3.01-5.78 1.66-17.7 4.57-26.5 6.47-8.8 1.9-21.4 4.36-28 5.46-6.6 1.1-19.43 2.89-28.5 3.98-9.08 1.09-23.93 2.57-33 3.28-11.61 0.91-36.95 1.26-85.5 1.17-37.95-0.07-78.68-0.64-90.5-1.28-11.83-0.64-28.7-1.83-37.5-2.66-8.8-0.83-22.53-2.42-30.5-3.54-7.98-1.12-21.25-3.38-29.5-5.03-8.25-1.65-20.4-4.34-27-5.98-6.6-1.65-17.18-4.53-23.5-6.42-6.33-1.89-11.84-3.44-12.25-3.45-0.42 0-0.76 4.38-0.77 9.74zm-33.98 21.25v8h16v-16h-16zm0 35v8h16v-16h-16zm0 35v8h16v-16h-16zm397.5 171.39c-2.75 0.66-7.43 2.54-10.4 4.16-2.97 1.62-6.87 4.75-8.68 6.95-1.81 2.2-4.19 6.02-5.3 8.5-1.1 2.47-3.16 10.69-4.57 18.25-1.4 7.56-2.55 15.21-2.55 17 0.01 1.79 0.5 5.05 1.1 7.25 0.6 2.2 2.17 5.46 3.5 7.25 1.32 1.79 4.65 4.37 7.4 5.75 2.75 1.37 10.51 3.81 17.25 5.41 6.73 1.61 18.43 4.31 26 6 12.44 2.8 13.87 3.34 15 5.71 1 2.12 0.98 4.11-0.11 10.25-0.74 4.2-1.98 8.87-2.75 10.38-0.91 1.8-2.69 3.12-5.14 3.83-2.25 0.64-10.52 0.94-20.59 0.75-16.59-0.33-16.87-0.37-18.85-2.83-1.7-2.12-1.9-3.33-1.29-8 0.39-3.03 0.88-6.06 1.09-6.75 0.3-0.96-3.23-1.26-15.36-1.27l-15.75-0.02c-2.7 13.59-3.47 20.01-3.47 23.04 0.01 3.13 0.79 7.22 1.81 9.5 0.99 2.2 3.57 5.45 5.73 7.23 2.29 1.88 6.43 3.9 9.93 4.83 5.04 1.34 10.88 1.54 36.5 1.23 29.38-0.35 30.72-0.45 36.5-2.75 3.52-1.41 7.99-4.28 10.82-6.97 2.66-2.51 5.92-6.82 7.26-9.57 1.34-2.75 3.78-11.41 5.43-19.25 1.64-7.84 2.99-16.73 2.99-19.75 0-3.03-0.7-7.19-1.56-9.25-0.85-2.06-2.76-5.03-4.25-6.59-1.48-1.56-4.38-3.7-6.44-4.75-2.07-1.05-14.89-4.55-28.5-7.77-13.62-3.23-25.77-6.38-27-7-1.24-0.63-2.52-2.15-2.85-3.39-0.33-1.24-0.11-5.18 0.49-8.75 0.6-3.58 1.93-7.63 2.95-9 1.01-1.38 3.61-3.1 5.75-3.82 2.74-0.93 8.28-1.23 18.55-1 12.99 0.28 14.9 0.55 16.84 2.32 1.97 1.8 2.13 2.67 1.6 8.75l-0.58 6.75 30.5 0.03c5.81-31.41 7.49-41.32 7.5-42.28 0-1.64-2.58-1.74-40.75-1.67-28.32 0.06-42.28 0.46-45.75 1.31zm423.5 10.86c0 0.14-1.12 6.1-2.49 13.25-1.38 7.15-2.5 13.11-2.51 13.25 0 0.14-3.24 0.36-7.21 0.5l-7.2 0.25c-2.79 15.5-3.82 20.79-4.1 21.75-0.44 1.55 0.32 1.75 6.51 1.75 6 0 7 0.25 6.99 1.75 0 0.96-2.53 15.02-5.61 31.25-5.13 26.97-5.52 29.95-4.5 34.75 0.8 3.77 2.11 6.24 4.62 8.75 1.92 1.92 5.18 4.02 7.25 4.66 2.06 0.63 11.06 1.31 20 1.5 8.93 0.18 16.25 0.23 16.25 0.09 0-0.14 0.9-4.98 2-10.75 1.1-5.78 2-11.29 2-12.25 0-1.53-1.07-1.75-8.5-1.75-4.68 0-9.4-0.45-10.5-1-1.29-0.65-1.99-1.97-1.96-3.75 0.02-1.51 2.2-14 4.84-27.75l4.8-25 23.82-0.55c2.88-16.62 3.9-22.01 4.11-22.7 0.29-0.95-2.47-1.25-11.61-1.25-11.93 0-12-0.01-11.5-2.25 0.27-1.24 1.4-6.98 2.5-12.75 1.09-5.78 1.99-10.84 1.99-11.25 0.01-0.41-6.74-0.75-14.99-0.75-8.25 0-15 0.11-15 0.25zm-45 26.65c-1.93 0.37-5.98 1.85-9 3.29-3.03 1.45-7.03 4.36-8.91 6.47l-3.4 3.84c0.91-4.65 1.43-7.69 1.74-9.75l0.57-3.75-29.5-0.02c-4.43 24.43-8.56 46.14-12.04 64.02-3.48 17.87-6.69 34.88-7.14 37.79l-0.82 5.3 29.86-0.59c1.98-9.3 4.84-24.15 7.64-39 2.8-14.85 5.5-28.35 6.02-30 0.51-1.65 2.17-4.23 3.7-5.73 1.53-1.5 5.25-3.67 8.28-4.82 3.48-1.33 8.98-2.3 15-2.65l9.5-0.56c3.33-18.01 4.12-23.58 3.9-23.99-0.22-0.41-2.99-0.7-6.15-0.64-3.17 0.07-7.33 0.42-9.25 0.79zm-281.91 23.32c-2.36 12.81-7.21 38.35-10.76 56.78-3.56 18.42-7.58 39.57-8.94 47-1.36 7.42-2.68 14.29-2.93 15.25-0.43 1.61 0.76 1.75 14.79 1.75h15.25c5.14-27.51 7.05-37.64 7.56-40.25l0.94-4.75c4.26 3.94 7.75 5.8 10.5 6.67 3.96 1.26 8.31 1.5 21 1.19 14.87-0.37 16.39-0.59 21.5-3.07 3.02-1.47 6.41-3.48 7.52-4.48 1.12-1 3.23-3.39 4.7-5.31 1.46-1.93 3.39-5.53 4.27-8 0.88-2.48 3.83-16.31 6.55-30.75 2.74-14.51 4.96-29.16 4.96-32.75 0-3.62-0.69-8.16-1.56-10.25-0.86-2.06-2.32-4.6-3.25-5.64-0.93-1.04-3.94-2.95-6.69-4.24-4.52-2.13-6.4-2.35-19.5-2.37-9.79-0.01-16.13 0.45-19.5 1.44-2.75 0.8-7.14 3.05-9.75 5.01-4.38 3.27-4.72 3.37-4.28 1.3 0.25-1.24 0.59-3.38 0.75-4.75l0.28-2.5-29.11-0.55zm136.91-21.91c-2.48 0.68-6.08 2.19-8 3.35-1.93 1.16-4.97 3.74-6.75 5.73-1.79 1.98-4.15 5.4-5.25 7.6-1.1 2.2-2.65 6.82-3.45 10.25-0.8 3.44-3.29 16.38-5.55 28.75-2.25 12.38-4.11 24.98-4.14 28-0.02 3.03 0.48 6.85 1.11 8.5 0.64 1.65 2.36 4.28 3.84 5.85 1.48 1.56 4.49 3.81 6.69 5 3.83 2.07 5.19 2.15 33.02 2.15h29.02c11.78-5.68 14.48-7.81 17.54-11.75 2.59-3.34 4.74-7.61 5.91-11.75 1.01-3.57 3.9-17.52 6.43-31 2.53-13.47 4.6-26.75 4.61-29.5 0-2.75-0.52-6.57-1.15-8.5-0.64-1.92-2.33-4.77-3.77-6.34-1.44-1.56-4.41-3.81-6.61-5-3.79-2.04-5.45-2.17-31.5-2.37-19.34-0.15-28.84 0.16-32 1.03z"/>
		<path id="Stroke" fill-rule="evenodd" class="s3" d="m0 512v512h1536v-1024h-1536zm544.66-288.26c-0.77 1.52-2.92 4.07-4.78 5.67-1.86 1.6-5.29 3.74-7.63 4.75-3.86 1.67-4.53 1.7-7.25 0.34-1.65-0.82-3.22-1.5-3.5-1.5-0.27 0-0.39 1.24-0.25 2.75l0.25 2.75c511.92 0.94 543.68 1.17 544.52 2.5 0.56 0.88 0.96 17.87 0.97 41l0.03 39.5c-11.61 5.05-15.4 7.74-20.16 12.44-4.77 4.71-7.66 8.68-10.23 14.06-2 4.17-4.1 10.61-4.74 14.5-0.65 3.97-0.87 10.35-0.52 14.75 0.35 4.27 1.74 10.78 3.11 14.5 1.37 3.71 4.18 9.19 6.25 12.17 2.08 2.98 5.7 7.03 8.06 9 2.36 1.97 6.18 4.59 8.5 5.83 2.32 1.23 5.45 2.7 6.96 3.25l2.75 1v80c-4.15 2.78-10.08 3.02-40.5 3.02h-36c5.43 4.19 9.93 8.24 13.5 11.71l6.5 6.29c56.28-0.5 58.24-0.65 62-2.63 2.2-1.15 5.45-3.85 7.22-6 1.78-2.14 3.69-5.8 4.25-8.14 0.63-2.6 1.03-22.79 1.04-52l0.01-47.75c-9.7-0.94-14.55-2.09-17.02-3.17-2.47-1.07-6.45-3.72-8.83-5.89-2.38-2.17-5.37-6.19-6.64-8.94-1.28-2.75-2.84-7.48-3.48-10.5-0.67-3.15-0.87-7.63-0.48-10.5 0.38-2.75 1.5-7.25 2.5-10 0.99-2.75 3.78-7.25 6.2-10 2.83-3.21 6.33-5.85 9.81-7.39 2.98-1.31 8.25-2.66 11.71-3l6.3-0.61-0.59-101c-4.1-7.31-6.77-10.01-9.92-11.96l-4.92-3.04-523.61-0.51zm298.84 52.12c-2.2 1-5.54 3.13-7.42 4.73-1.88 1.6-4.46 5.15-5.74 7.9-1.62 3.5-2.31 6.81-2.31 11 0.01 3.88 0.74 7.6 2.05 10.5 1.12 2.48 3.25 5.8 4.73 7.38 1.48 1.58 4.94 3.94 7.69 5.24 3.58 1.69 6.77 2.37 11.25 2.37 3.44 0.01 7.71-0.58 9.5-1.3 1.79-0.73 5.22-3.09 7.62-5.25 2.41-2.17 5.18-5.51 6.15-7.44 0.98-1.92 2.1-5.52 2.49-8 0.48-3.02 0.2-6.3-0.85-10-0.94-3.33-3.05-7.24-5.36-9.92-2.11-2.46-6.02-5.45-8.8-6.74-3.49-1.62-6.81-2.31-11-2.3-3.65 0-7.56 0.72-10 1.83zm-381.51 33.88l-0.01 27.75c8.15 0.98 12.32 2.17 14.52 3.27 2.2 1.1 6 4.19 8.45 6.87 2.45 2.67 5.37 6.89 6.5 9.36 1.65 3.63 2.05 6.55 2.05 15 0 9.58-0.26 11.07-3 16.91-1.87 4-4.72 7.96-7.55 10.5-2.69 2.41-6.8 4.82-10 5.87-3 0.97-6.69 1.76-8.2 1.75l-2.75-0.03-0.03 99.5c4.86 9.66 6.73 11.73 10.45 14l4.92 3 56.66 0.5v-18c-39.14-0.02-50.99-0.36-51.6-0.76-0.6-0.4-1.62-1.75-2.25-2.99-0.84-1.64-0.97-12.62-0.49-41l0.65-38.75c9.26-5.42 14.27-9.47 17.1-12.5 2.83-3.02 6.6-8.42 8.37-12 1.78-3.57 3.91-9.98 4.73-14.25 0.82-4.26 1.48-9.66 1.48-12-0.01-2.33-0.68-7.4-1.49-11.25-0.81-3.85-3.01-10.15-4.89-14-2.02-4.14-5.63-9.24-8.84-12.5-2.98-3.02-7.97-6.85-11.09-8.5l-5.67-3c-0.01-22.86-0.23-29.95-0.51-30.5-0.27-0.55-0.5-1.67-0.5-2.5 0-0.97-0.95-1.48-2.75-1.46-1.57 0.02-4.46-1.28-6.75-3.04-2.2-1.68-4.79-3.05-5.75-3.03-1.62 0.03-1.75 2.04-1.76 27.78zm275.25-5.31c-2.35 1.33-6.2 5.03-8.59 8.24-2.38 3.2-9.59 12.57-16.03 20.82-10.27 13.17-11.69 15.46-11.66 18.75 0.03 2.63 0.79 4.5 2.54 6.25 1.84 1.84 3.57 2.5 6.5 2.5 3.81 0 4.84-0.79 21.04-16.25 9.38-8.93 17.59-16.38 18.25-16.56 0.67-0.17 8.19 1.56 16.71 3.85 8.53 2.28 15.61 4.33 15.75 4.56 0.14 0.22-7.09 11.77-16.06 25.65-8.98 13.89-19.21 29.88-22.75 35.54-3.54 5.66-6.21 10.43-5.94 10.62 0.28 0.19 14.11 0.62 30.75 0.97 19.92 0.41 30.25 0.28 30.25-0.38 0-0.55-0.56-1.13-1.25-1.3-0.81-0.2-0.2-1.69 1.75-4.25 1.65-2.17 7-9.12 11.89-15.45 4.89-6.32 10.07-12.74 11.5-14.27l2.61-2.77c17.42 17.39 23.56 22.61 25.75 23.5 2.06 0.85 4.88 1.54 6.25 1.54 1.38 0 4.19-0.72 6.25-1.59 2.4-1.03 10.56-8.52 22.62-20.75 10.38-10.54 19.29-20.28 19.8-21.66 0.51-1.37 0.68-3.73 0.38-5.25-0.3-1.51-2.01-3.92-3.8-5.36-2.57-2.07-3.92-2.48-6.5-2-1.99 0.38-6.64 3.45-12 7.93-4.81 4.03-12.35 10.12-16.75 13.54-4.4 3.42-8.22 6.21-8.5 6.21-0.27 0-6.09-7.78-12.92-17.29-6.84-9.5-14.09-19.3-16.12-21.78-2.03-2.47-6.11-6.38-9.07-8.69-2.96-2.31-7.41-4.91-9.89-5.77-2.47-0.87-16.65-3.82-31.5-6.55-14.85-2.73-29.25-4.97-32-4.97-3.45 0-6.32 0.75-9.26 2.42zm-20.15 137.31l-8.07 13.75c-42.19 34.88-56.18 46.58-58.31 48.5-3.07 2.78-3.99 4.43-4.46 8-0.51 3.95-0.25 4.85 2.09 7.25 1.96 2.03 3.64 2.76 6.41 2.77 3.16 0.01 9.55-3.58 40.48-22.75l36.73-22.77c25.85-31 33.9-40 34.55-40 0.66 0 9.3 4.95 19.2 11l18 11c-23.29 33.33-31.87 45.48-34.1 48.5-3.05 4.14-4.06 6.45-4.08 9.34-0.02 3.07 0.61 4.4 3.22 6.75 2.28 2.05 4.29 2.91 6.75 2.91 2.89 0 4.57-1 9.6-5.75 3.35-3.16 16.52-16.89 29.25-30.51 12.73-13.62 23.97-26.22 24.97-28 1.35-2.41 1.67-4.45 1.25-7.99-0.31-2.61-1.36-5.93-2.32-7.38-0.96-1.45-5.39-5.84-9.85-9.75l-8.1-7.12c-13.02-1.15-34.43-1.49-55.97-1.49l-39.17-0.01zm-114.09 55.94c-11.27 8.52-30.85 23.03-43.5 32.24-12.65 9.2-42.12 30.55-65.5 47.44-23.37 16.88-43.62 31.57-45 32.64-2.48 1.94-2.12 1.95 59.25 1.97l61.75 0.02c25.34-28.28 38.22-42.8 44.98-50.5 6.75-7.7 15.58-17.6 19.62-22 4.03-4.4 7.33-8.45 7.32-9 0-0.55-1.33-2.46-2.96-4.25-1.63-1.78-3.45-5.16-4.06-7.5-0.61-2.33-0.82-6.27-0.46-8.75 0.35-2.47 1.41-6.04 2.35-7.94 0.94-1.89 4.16-5.49 7.15-8 3-2.5 7.27-6.23 9.5-8.28l4.06-3.73-34 0.14zm138.4-13.59c-1.04 1.15-7.07 5.37-13.4 9.37-6.32 4.01-22.3 13.91-35.5 22.02-13.2 8.11-25.57 15.53-27.5 16.49-1.92 0.96-4.62 2.04-6 2.4-1.68 0.44-7.79 7.26-18.7 20.89-8.91 11.13-22.72 28.34-30.7 38.24-7.98 9.9-14.42 18.09-14.3 18.2 0.11 0.1 37.33 0.25 82.7 0.33l82.5 0.13c0.33-9.81 0.9-27.29 1.5-45.16l1.07-32.5c-4.15-3.88-6.18-6.8-7.19-9-1.06-2.32-1.84-6.31-1.85-9.5-0.01-4.23 0.65-6.65 2.85-10.5 1.57-2.75 3.61-5.68 4.53-6.5 1.31-1.17 1.67-3.22 1.64-9.25l-0.05-7.75c-18.58 0-19.92 0.24-21.6 2.09zm72.6 23.98c-16.36 17.37-25.83 26.66-28.5 27.96-2.2 1.07-4.56 1.95-5.25 1.95-0.98 0.02-1.14 5.76-0.73 26.77 0.28 14.71 0.73 31.36 1 37l0.48 10.25c127.88 0 165-0.23 165-0.5 0-0.28-4.82-6.46-10.71-13.75-5.89-7.29-16.57-20.45-23.74-29.25-7.17-8.8-24.91-30.85-39.43-49-14.52-18.15-27.01-34.01-27.76-35.25-0.77-1.29-2.32-2.24-3.61-2.22-1.63 0.02-9 7.2-26.75 26.04zm45.15-24.22c0.74 1.02 13.73 16.18 28.85 33.69 15.13 17.51 33.58 38.66 41 47 7.43 8.33 20.03 22.42 28 31.3l14.5 16.15c97.96 0.03 124.57-0.33 124-0.83-0.55-0.47-19-13.66-41-29.31-22-15.64-51.02-36.26-64.5-45.82-13.47-9.56-35.97-25.63-50-35.72l-25.5-18.32c-55.77 0.01-56.66 0.07-55.35 1.86zm-639.44 192.9c-6.99 13.61-23.73 46.12-37.19 72.25-13.46 26.12-24.48 47.84-24.49 48.25-0.02 0.41 7.73 0.64 17.22 0.5l17.25-0.25 14-28.55c39.14 0.04 50.53 0.39 50.56 0.8 0.04 0.41 0.83 6.82 1.77 14.25l1.71 13.5c28.22 0.41 34.46 0.14 34.46-0.5 0-0.55-4.02-30.81-8.95-67.25-4.92-36.44-9.19-68.84-9.5-72l-0.55-5.75h-43.59zm121.68 16.03c-2.81 0.95-6.81 3.07-8.88 4.72-2.07 1.65-5.04 4.57-6.61 6.5-1.57 1.92-3.73 5.97-4.79 9-1.07 3.02-4.31 18.32-7.21 34-4.92 26.63-5.18 28.86-4.05 34 0.67 3.02 2.25 6.85 3.51 8.5 1.25 1.65 4.5 4.12 7.22 5.5 4.91 2.49 5.07 2.5 32.43 2.49 26.01-0.02 27.8-0.14 33-2.22 3.03-1.22 7.41-4.02 9.75-6.24 2.34-2.22 5.15-5.83 6.25-8.03 1.1-2.2 2.63-6.81 3.39-10.25 0.77-3.44 1.67-7.71 2-9.5l0.61-3.25c-25.21 0-29.11 0.33-29.42 1.25-0.23 0.69-0.68 2.94-1 5-0.32 2.06-1.68 4.87-3.03 6.25-2.38 2.42-2.88 2.5-16 2.5-7.45 0-14.45-0.45-15.55-1-1.55-0.78-2-2-2-5.5 0-2.48 1.74-13.39 3.86-24.25 2.12-10.86 4.37-20.76 5-22 0.63-1.24 2.72-2.93 4.64-3.75 2.4-1.03 6.89-1.5 14.25-1.49 6.76 0.01 11.68 0.49 13.25 1.3 2.26 1.16 2.5 1.88 2.5 7.48v6.2c28.23 0.01 28.51-0.03 28.95-2.24 0.25-1.24 0.93-4.61 1.5-7.5 0.58-2.89 1.05-6.49 1.05-8-0.01-1.51-0.5-4.55-1.11-6.75-0.66-2.42-2.74-5.6-5.24-8.04q-4.15-4.05-8.9-5.25c-3.1-0.79-13.34-1.2-29.5-1.18-20.68 0.03-25.59 0.32-29.87 1.75zm113.12-0.38c-2.2 0.69-5.35 1.98-7 2.85-1.65 0.87-4.86 3.54-7.14 5.92-2.28 2.38-4.82 5.68-5.65 7.33-0.82 1.65-1.99 4.8-2.59 7-0.59 2.2-3.33 15.7-6.09 30-2.75 14.3-5 28.02-5 30.5 0 2.47 0.56 6.25 1.24 8.38 0.68 2.14 2.92 5.4 4.98 7.25 2.29 2.05 6 4 9.5 4.97 4.78 1.34 10.07 1.55 31.25 1.24 21.77-0.31 26.09-0.63 29.5-2.15 2.2-0.98 5.73-3 7.84-4.49 2.11-1.48 5.1-4.73 6.64-7.2 1.53-2.48 3.29-6.08 3.89-8 0.61-1.93 1.67-6.76 2.37-10.73l1.26-7.24-29.5-0.03c0 3.87-0.66 6.69-1.47 8.75-0.81 2.06-2.61 4.31-4 5-1.63 0.8-7.14 1.25-15.53 1.25-11.67 0-13.2-0.21-15-2-1.1-1.1-2-2.56-2-3.25 0.01-0.69 1.97-11.15 4.36-23.25 2.39-12.1 4.86-23.01 5.49-24.25 0.64-1.24 2.73-2.93 4.65-3.75 2.4-1.03 6.89-1.5 14.25-1.49 6.79 0.01 11.67 0.49 13.25 1.31 2.31 1.19 2.48 1.76 2.25 7.48l-0.25 6.2h29c1.16-5.81 1.5-11.85 1.5-17.16 0-9.3-0.11-9.8-3.09-13.5-1.97-2.44-5.07-4.65-8.5-6.06-5.11-2.1-6.81-2.22-30.91-2.18-17.69 0.02-26.72 0.42-29.5 1.3zm112-0.04c-2.2 0.67-6.14 2.44-8.75 3.93-2.61 1.49-5.82 4.17-7.13 5.96-1.32 1.79-3.39 5.27-4.62 7.75-1.37 2.77-4.3 14.99-7.61 31.75-3.23 16.31-5.4 29.96-5.41 34-0.02 5.17 0.53 7.8 2.33 11.25 1.85 3.56 3.57 5.13 8.2 7.5l5.85 3h56.34c11.62-5.93 14.74-8.38 17.09-11.5 1.85-2.48 4.2-7.43 5.22-11 1.01-3.58 2.1-7.74 2.41-9.25l0.58-2.75h-29c-1.55 6.21-3 8.67-4.25 9.51-1.74 1.16-5.45 1.5-16.5 1.5-11.32-0.01-14.56-0.32-15.75-1.51-0.82-0.83-1.5-2.96-1.51-4.75 0-1.79 0.56-5.85 1.25-9.02l1.26-5.77 66 0.07c1.77-7.39 3.54-16.28 5.07-24.53 2.59-13.94 2.69-15.43 1.44-21-0.92-4.06-2.35-7.07-4.43-9.32-1.69-1.83-5.44-4.19-8.33-5.25-4.69-1.73-7.93-1.92-30.5-1.86-16.91 0.04-26.57 0.47-29.25 1.29zm111 0.04c-2.2 0.69-5.35 1.96-7 2.81-1.65 0.86-4.52 3.07-6.38 4.92-1.85 1.85-4.41 5.62-5.67 8.37-1.27 2.75-3.08 9.05-4.02 14-1.41 7.4-1.52 9.93-0.57 14.25 0.93 4.3 1.91 5.88 5.39 8.73 2.46 2.02 6.57 4.1 9.75 4.94 3.03 0.8 13.15 2.92 22.5 4.71 13.19 2.52 17.42 3.71 18.88 5.31 1.45 1.59 1.72 2.85 1.17 5.56-0.38 1.92-1.34 4.51-2.12 5.75-0.81 1.26-2.85 2.5-4.68 2.83-1.79 0.31-8.74 0.43-15.45 0.25-8.26-0.23-12.62-0.75-13.5-1.62-0.77-0.77-1.2-3.12-1.05-5.75l0.25-4.46h-29c-1.72 11.24-1.92 16.3-1.55 18.5 0.37 2.2 1.55 5.46 2.61 7.25 1.13 1.9 4.13 4.39 7.19 6l5.25 2.75c55.11 0 57.3-0.14 61.5-2.05 2.48-1.13 6.08-3.22 8-4.66 1.93-1.43 4.81-5 6.41-7.94 1.63-2.99 3.72-9.32 4.74-14.35 1-4.95 1.83-11.14 1.84-13.75 0.01-2.78-0.82-6.42-1.99-8.75-1.1-2.2-3.46-4.85-5.25-5.88-1.79-1.03-4.82-2.38-6.75-2.98-1.92-0.61-11.6-2.63-21.5-4.48-9.9-1.86-19.01-3.89-20.25-4.52-1.77-0.9-2.25-2-2.25-5.14 0-2.8 0.72-4.83 2.41-6.75 2.41-2.74 2.47-2.75 15.59-2.75 12.69 0 13.25 0.09 15.08 2.38 1.34 1.68 1.76 3.39 1.41 5.75l-0.49 3.37c24.16 0 28.2-0.34 28.71-1.25 0.39-0.69 0.9-5.08 1.13-9.75 0.31-6.36 0.03-9.26-1.12-11.5-0.85-1.65-2.82-4.17-4.38-5.6-1.56-1.43-4.75-3.34-7.09-4.25-3.56-1.38-8.27-1.64-29-1.58-17.01 0.04-26 0.46-28.75 1.33zm109.96 0.36c-2.78 0.96-6.94 2.98-9.25 4.49-2.32 1.51-5.57 4.66-7.24 7-1.67 2.34-3.9 6.95-4.95 10.25-1.06 3.3-2.42 8.92-3.03 12.5-0.6 3.57-2.65 14.6-4.56 24.5-1.9 9.9-3.46 20.7-3.46 24-0.01 3.3 0.62 7.57 1.39 9.5 0.77 1.92 2.92 4.87 4.77 6.55 1.86 1.68 5.17 3.71 7.37 4.5 3.12 1.13 10.04 1.45 31.5 1.45 23.25 0 28.27-0.26 32.5-1.7 2.91-0.99 7.24-3.71 10.34-6.5 3.12-2.8 6.31-6.88 7.67-9.8 1.28-2.75 3.22-9.5 4.31-15 1.09-5.5 3.68-19.23 5.76-30.5 3.46-18.76 3.68-20.97 2.57-26-0.66-3.03-2.24-6.85-3.49-8.5-1.26-1.65-4.51-4.13-7.22-5.5-4.87-2.47-5.32-2.5-32.44-2.74-23.94-0.21-28.15-0.02-32.54 1.5zm-296.3-497.91l-0.16 15.15h30v-29c-10.46-0.01-17.14-0.3-21.59-0.66l-8.09-0.64zm-57.67 11.4c-0.33 1.79-0.45 7.98-0.29 13.75l0.3 10.5 27.5 0.5v-28h-26.92zm42.52 38.5c0 3.16-0.34 7.89-0.75 10.52l-0.76 4.76 21.5-0.03v-21h-20zm42.04 27.21l-0.05 8.04h16l-0.5-15.5-15.41-0.58zm-0.04 35.54v7.5h16v-15h-16zm0 34.5v8h16v-16h-16zm-0.18 30.25c-0.2 1.79-0.25 5.39-0.1 8l0.28 4.75h16v-16h-15.81zm34.16 18.5l-0.02 9.75c25.22 7.33 38.61 10.8 46.04 12.45 7.42 1.64 21.82 4.33 32 5.97 10.17 1.65 25.02 3.67 33 4.5 7.97 0.83 21.25 1.97 29.5 2.52 8.25 0.56 23.77 1.24 34.5 1.53 10.72 0.28 43.57 0.76 73 1.06 31.88 0.32 61.58 0.12 73.5-0.5 11-0.58 27.42-1.73 36.5-2.56 9.07-0.83 23.02-2.43 31-3.57 7.97-1.13 20.12-3.18 27-4.54 6.87-1.37 19.47-4.23 28-6.36 8.52-2.13 16.74-4.35 18.25-4.94 2.73-1.06 2.75-1.12 2.75-10.56 0-5.23-0.34-9.5-0.75-9.5-0.41 0-5.48 1.35-11.25 3.01-5.78 1.66-17.7 4.57-26.5 6.47-8.8 1.9-21.4 4.35-28 5.46-6.6 1.1-19.43 2.89-28.5 3.98-9.08 1.09-23.93 2.56-33 3.28-11.61 0.91-36.95 1.26-85.5 1.17-37.95-0.07-78.68-0.64-90.5-1.28-11.83-0.64-28.7-1.83-37.5-2.66-8.8-0.83-22.53-2.42-30.5-3.54-7.98-1.12-21.25-3.39-29.5-5.03-8.25-1.65-20.4-4.34-27-5.99-6.6-1.64-17.18-4.52-23.5-6.41-6.33-1.89-11.84-3.44-12.25-3.45-0.41-0.01-0.76 4.38-0.77 9.74zm-33.98 21.25v8h16v-16h-16zm0 35v8h16v-16h-16zm0 35v8h16v-16h-16zm397.5 171.38c-2.75 0.67-7.43 2.55-10.4 4.17-2.97 1.62-6.87 4.75-8.68 6.95-1.81 2.2-4.19 6.02-5.3 8.5-1.1 2.47-3.16 10.69-4.56 18.25-1.41 7.56-2.56 15.21-2.56 17 0.01 1.79 0.5 5.05 1.1 7.25 0.6 2.2 2.18 5.46 3.5 7.25 1.32 1.79 4.65 4.37 7.4 5.75 2.75 1.37 10.51 3.81 17.25 5.41 6.74 1.6 18.44 4.3 26 6 12.44 2.79 13.87 3.34 15 5.71 1.01 2.12 0.98 4.11-0.11 10.25-0.74 4.2-1.98 8.87-2.75 10.38-0.91 1.8-2.69 3.12-5.14 3.82-2.25 0.65-10.52 0.95-20.59 0.75-16.59-0.32-16.87-0.36-18.85-2.82-1.7-2.12-1.89-3.33-1.29-8 0.39-3.03 0.88-6.06 1.09-6.75 0.3-0.96-3.23-1.26-15.36-1.27l-15.75-0.02c-2.69 13.59-3.47 20.01-3.47 23.04 0.01 3.13 0.79 7.22 1.81 9.5 0.99 2.2 3.57 5.45 5.73 7.23 2.29 1.88 6.43 3.9 9.93 4.83 5.04 1.34 10.88 1.54 36.5 1.23 29.38-0.35 30.72-0.45 36.5-2.75 3.52-1.41 7.99-4.28 10.82-6.97 2.66-2.51 5.92-6.82 7.26-9.57 1.34-2.75 3.79-11.41 5.43-19.25 1.64-7.84 2.99-16.73 2.99-19.75 0-3.03-0.7-7.19-1.56-9.25-0.85-2.06-2.76-5.03-4.25-6.59-1.48-1.57-4.38-3.7-6.44-4.75-2.06-1.05-14.89-4.55-28.5-7.78-13.61-3.22-25.76-6.37-27-7-1.24-0.62-2.52-2.14-2.85-3.38-0.33-1.24-0.11-5.18 0.49-8.75 0.6-3.58 1.93-7.63 2.95-9 1.02-1.38 3.61-3.1 5.75-3.82 2.74-0.93 8.28-1.23 18.55-1 12.99 0.28 14.9 0.54 16.84 2.32 1.97 1.8 2.13 2.67 1.6 8.75l-0.58 6.75 30.5 0.02c5.81-31.4 7.49-41.31 7.5-42.27 0-1.64-2.58-1.75-40.75-1.67-28.31 0.06-42.28 0.46-45.75 1.3zm423.5 10.87c0 0.14-1.12 6.1-2.49 13.25-1.38 7.15-2.5 13.11-2.51 13.25 0 0.14-3.24 0.36-7.21 0.5l-7.2 0.25c-2.79 15.5-3.82 20.79-4.1 21.75-0.43 1.55 0.32 1.75 6.51 1.75 6 0 7 0.25 6.99 1.75 0 0.96-2.53 15.02-5.61 31.25-5.13 26.96-5.52 29.95-4.5 34.75 0.8 3.76 2.11 6.24 4.62 8.75 1.92 1.92 5.19 4.02 7.25 4.65 2.06 0.64 11.06 1.31 20 1.5 8.94 0.19 16.25 0.24 16.25 0.1 0-0.14 0.9-4.98 2-10.75 1.1-5.78 2-11.29 2-12.25 0-1.53-1.07-1.75-8.5-1.75-4.68 0-9.4-0.45-10.5-1-1.29-0.65-1.99-1.98-1.96-3.75 0.02-1.51 2.2-14 4.84-27.75l4.8-25 23.82-0.55c2.88-16.62 3.9-22.01 4.11-22.7 0.3-0.95-2.47-1.25-11.61-1.25-11.93 0-12-0.02-11.5-2.25 0.28-1.24 1.4-6.98 2.5-12.75 1.09-5.78 1.99-10.84 1.99-11.25 0.01-0.41-6.74-0.75-14.99-0.75-8.25 0-15 0.11-15 0.25zm-45 26.65c-1.93 0.36-5.98 1.85-9 3.29-3.03 1.45-7.03 4.36-8.91 6.47l-3.4 3.84c0.91-4.65 1.43-7.69 1.74-9.75l0.57-3.75-29.5-0.02c-4.43 24.43-8.56 46.14-12.04 64.02-3.48 17.87-6.69 34.88-7.14 37.79l-0.82 5.29 29.86-0.58c1.98-9.3 4.84-24.15 7.64-39 2.8-14.85 5.51-28.35 6.02-30 0.51-1.65 2.18-4.23 3.7-5.73 1.53-1.51 5.25-3.68 8.28-4.83 3.48-1.32 8.98-2.29 15-2.64l9.5-0.56c3.33-18.01 4.12-23.58 3.9-23.99-0.22-0.41-2.99-0.7-6.15-0.64-3.16 0.07-7.33 0.42-9.25 0.79zm-281.91 23.32c-2.36 12.8-7.21 38.35-10.76 56.78-3.56 18.42-7.58 39.57-8.94 47-1.36 7.42-2.68 14.29-2.93 15.25-0.43 1.61 0.76 1.75 14.79 1.75h15.25c5.14-27.51 7.05-37.64 7.56-40.25l0.94-4.75c4.26 3.94 7.75 5.8 10.5 6.67 3.96 1.26 8.31 1.5 21 1.19 14.87-0.37 16.39-0.59 21.5-3.07 3.02-1.47 6.41-3.49 7.52-4.48 1.12-1 3.23-3.39 4.7-5.31 1.47-1.93 3.39-5.53 4.27-8 0.88-2.48 3.83-16.31 6.56-30.75 2.73-14.51 4.95-29.16 4.95-32.75 0-3.62-0.69-8.16-1.56-10.25-0.86-2.06-2.32-4.6-3.25-5.64-0.93-1.04-3.94-2.95-6.69-4.24-4.52-2.13-6.39-2.35-19.5-2.37-9.79-0.02-16.13 0.45-19.5 1.43-2.75 0.8-7.14 3.06-9.75 5.01-4.37 3.28-4.71 3.38-4.28 1.31 0.25-1.24 0.59-3.38 0.75-4.75l0.28-2.5-29.11-0.55zm136.91-21.91c-2.48 0.67-6.08 2.18-8 3.35-1.93 1.16-4.96 3.74-6.75 5.72-1.79 1.99-4.15 5.41-5.25 7.61-1.1 2.2-2.65 6.82-3.45 10.25-0.8 3.44-3.29 16.38-5.55 28.75-2.25 12.38-4.11 24.98-4.14 28-0.02 3.03 0.48 6.85 1.11 8.5 0.64 1.65 2.36 4.28 3.84 5.84 1.48 1.57 4.49 3.82 6.69 5 3.83 2.07 5.19 2.16 33.02 2.16h29.02c11.78-5.69 14.48-7.81 17.54-11.75 2.59-3.34 4.74-7.61 5.91-11.75 1.01-3.57 3.9-17.52 6.43-31 2.53-13.47 4.61-26.75 4.61-29.5 0-2.75-0.52-6.57-1.15-8.5-0.64-1.92-2.33-4.78-3.77-6.34-1.44-1.56-4.41-3.81-6.61-5-3.79-2.04-5.45-2.17-31.5-2.37-19.34-0.15-28.84 0.16-32 1.03zm-915.42 20.93c-7.52 15.54-13.54 28.36-13.38 28.49 0.17 0.13 7.95 0.13 17.31 0l17.01-0.24c-4.2-37.97-5.51-50.68-5.62-52.75-0.1-2.06-0.52-3.75-0.92-3.75-0.4 0-6.88 12.72-14.4 28.25zm343.92 2.13c-1.65 0.72-3.51 2.39-4.14 3.71-0.63 1.33-1.45 4.21-1.84 6.41-0.38 2.2-0.88 4.79-1.11 5.75-0.38 1.62 0.98 1.75 18.09 1.75 11.33 0 18.69-0.38 19-1 0.27-0.55 0.8-4.03 1.16-7.75 0.62-6.35 0.52-6.85-1.75-8.51-1.99-1.45-4.49-1.74-14.41-1.71-7.54 0.03-13.12 0.53-15 1.35zm223.8 0.27c-1.21 0.25-3.24 1.61-4.5 3.02-1.56 1.74-2.85 5.34-4.01 11.2-0.94 4.75-2.85 14.82-4.25 22.38-1.4 7.57-2.54 14.43-2.54 15.25 0 0.83 0.9 2.4 2 3.5 1.8 1.8 3.33 2 15.5 2 7.42 0 14.62-0.45 16-1 1.37-0.55 3.01-2.01 3.63-3.25 0.63-1.23 2.87-11.25 4.98-22.25 2.12-11 3.97-21.67 4.12-23.72 0.18-2.51-0.31-4.3-1.51-5.5-1.51-1.5-3.78-1.8-14.5-1.93-7-0.08-13.71 0.05-14.92 0.3zm246.78 0.42c-1.88 0.49-4.24 1.91-5.24 3.16-1.17 1.47-3.24 9.47-5.88 22.77-2.24 11.28-4.16 21.95-4.26 23.72-0.13 1.98 0.49 3.91 1.58 5 1.51 1.51 3.91 1.82 15.75 2.03l13.97 0.25c5.9-5.35 6.29-6.65 10.06-26.5 2.19-11.55 3.86-22.79 3.71-24.97-0.21-3.09-0.83-4.26-2.77-5.24-1.57-0.79-6.41-1.23-13-1.18-5.78 0.04-12.04 0.47-13.92 0.96zm112.17 0.47c-1.79 0.81-3.76 2.48-4.38 3.71-0.63 1.24-2.43 9.23-4.02 17.75-1.59 8.53-3.44 19.03-4.12 23.35-1.23 7.83-1.23 7.85 1.27 9.79 2.19 1.71 4.14 1.95 16 1.94 12-0.01 13.8-0.23 16.25-2.04 1.51-1.12 3.17-3.5 3.68-5.29 0.51-1.78 2.6-12.25 4.64-23.25 2.17-11.71 3.44-21.14 3.07-22.75-0.38-1.64-1.65-3.15-3.14-3.75-1.38-0.55-7.79-0.98-14.25-0.96-8.08 0.03-12.77 0.5-15 1.5z"/>
	</g>

</svg>