<?xml version="1.0" encoding="UTF-8" standalone="no"?>
<svg
   viewBox="330 385 1175 275"
   version="1.1"
   id="svg38"
   sodipodi:docname="redesign-this-logo-in-a-horizontal-layout--the-tic.svg"
   inkscape:version="1.4.3 (0d15f75042, 2025-12-25)"
   xmlns:inkscape="http://www.inkscape.org/namespaces/inkscape"
   xmlns:sodipodi="http://sodipodi.sourceforge.net/DTD/sodipodi-0.dtd"
   xmlns="http://www.w3.org/2000/svg"
   xmlns:svg="http://www.w3.org/2000/svg">
  <defs
     id="defs38" />
  <sodipodi:namedview
     id="namedview38"
     pagecolor="#ffffff"
     bordercolor="#000000"
     borderopacity="0.25"
     inkscape:showpageshadow="2"
     inkscape:pageopacity="0.0"
     inkscape:pagecheckerboard="0"
     inkscape:deskcolor="#d1d1d1"
     inkscape:zoom="0.57589286"
     inkscape:cx="954.17054"
     inkscape:cy="547.84496"
     inkscape:window-width="1920"
     inkscape:window-height="1003"
     inkscape:window-x="0"
     inkscape:window-y="0"
     inkscape:window-maximized="1"
     inkscape:current-layer="svg38" />
  <path
     fill="#ffffff"
     d="M 0,0 H 1344 V 768 H 0 Z"
     id="path1"
     transform="scale(1.33333)"
     style="display:inline;opacity:0" />
  <path
     fill="#023765"
     d="m 789.21169,493.73572 26.6066,-0.02 c 2.21599,26.82926 7.72398,61.37318 11.39597,88.38911 l -20.93195,0.11867 -1.94799,-17.50396 -19.58129,0.0373 -11.02397,0.008 -8.48664,17.25729 c -6.89732,0.16267 -14.2453,0.0547 -21.18395,0.0787 14.69196,-29.52926 30.21192,-58.90385 45.15322,-88.36511 z"
     id="path2"
     style="stroke-width:1.33333" />
  <path
     fill="#ffffff"
     d="m 798.16367,513.89833 c 1.74533,2.44533 4.02932,29.7706 4.52132,34.56525 l -16.61996,0.0773 -3.33999,-0.304 -0.41733,-0.82666 z"
     id="path3"
     style="stroke-width:1.33333" />
  <path
     fill="#023765"
     transform="scale(1.33333 1.33333)"
     d="M311.795 333.383L442.086 333.427C450.798 333.419 507.757 332.269 512.616 335.185C517.38 341.483 515.661 367.779 515.61 377.23C511.726 377.435 509.561 377.485 506.43 379.989C503.469 382.348 501.628 385.837 501.354 389.614C501.02 393.3 502.221 396.961 504.673 399.733C507.882 403.429 510.816 403.764 515.358 404.109C515.36 414.263 515.028 425.377 515.857 435.457C517.202 451.811 498.679 448.479 487.232 448.361L481.367 443.202L480.853 442.523L481.235 441.896C487.353 440.984 501.085 441.851 508.711 441.373C509.096 431.692 508.8 420.137 508.789 410.361C489.873 401.821 489.769 379.425 508.703 371.09C508.828 360.883 508.801 350.676 508.622 340.471C493.377 339.502 470.003 340.182 454.083 340.181L351.931 340.157L320.123 340.203C316.23 340.234 303.386 341.419 301.36 338.725L301.862 338.088C307.639 338.921 308.336 337.553 311.795 333.383Z"
     id="path4" />
  <path
     fill="#fb5d02"
     d="m 1207.2613,493.39972 c 15.4773,-0.58533 34.3439,-0.0573 50.0892,-0.0507 -1.392,8.96131 -3.0266,17.88396 -4.9053,26.75727 -6.0307,0.1 -14.744,1.57066 -18.544,-3.51199 0.172,-2.46133 0.424,-3.044 -0.6946,-5.10532 -3.848,-2.47733 -23.1026,-4.10133 -25.228,0.79999 -4.7546,10.95998 -1.3253,13.13864 9.1974,15.45197 19.9612,4.85065 37.4625,3.46265 30.5345,30.37059 -3.7439,14.54263 -3.5933,20.37061 -21.0546,23.9826 -10.9053,0.18 -23.8572,1.13067 -34.5172,0.076 -17.0093,-1.68266 -14.376,-16.82129 -12.532,-28.10259 l 19.0573,0.13066 c -0.6427,6.38132 -0.64,12.40397 8.3146,12.22531 10.5427,-0.20934 21.756,1.15866 22.0867,-12.85731 -5.4427,-13.75463 -57.6999,-0.23599 -40.6346,-44.37855 4.1213,-10.66397 7.6,-13.76263 18.8306,-15.78796 z"
     id="path5"
     style="stroke-width:1.33333" />
  <path
     fill="#fb5d02"
     d="m 1296.5051,517.06899 c 31.0412,-1.08266 26.3666,8.31065 22.3759,35.19058 -1.1106,7.48532 -2.7066,15.53463 -6.992,21.85061 -7.6613,11.28931 -29.3892,10.81731 -39.1079,3.18266 -1.2226,7.65998 -2.7306,15.52396 -4.0999,23.18128 -0.1387,0.88933 -0.5787,1.94266 -0.8894,2.81999 -3.8186,1.68133 -13.5119,0.9 -18.1213,0.732 5.408,-25.38527 12.0493,-61.11452 15.6,-86.59579 3.7933,-0.036 14.9213,-0.65333 17.388,0.75067 -0.1027,1.64 -0.2667,2.41866 0.2173,4.01599 5.192,-2.61599 6.8506,-4.39866 12.6466,-5.02932 z"
     id="path6"
     style="stroke-width:1.33333" />
  <path
     fill="#ffffff"
     d="m 1286.0651,531.85696 c 4.2213,-0.14 11.652,-0.70267 15.292,1.05599 3.4506,5.11999 -1.4334,29.73726 -6.7827,33.93992 -3.472,0.0653 -16.9626,1.17333 -17.7573,-2.60666 -1.728,-8.21198 1.4374,-18.96795 3.6254,-27.0106 0.9186,-3.37599 2.8373,-4.06799 5.6226,-5.37865 z"
     id="path7"
     style="stroke-width:1.33333" />
  <path
     fill="#023765"
     d="m 1132.9815,517.04499 c 26.7479,-0.20933 46.2492,-5.63865 37.7906,30.48793 -3.82,16.31062 -2.272,30.47192 -22.1773,34.76391 -30.0039,-0.236 -48.1399,6.97865 -38.8799,-33.06658 3.6586,-15.82663 3.3946,-29.71326 23.2666,-32.18526 z"
     id="path8"
     style="stroke-width:1.33333" />
  <path
     fill="#ffffff"
     d="m 1136.1042,531.91829 c 3.2013,-0.0413 16.0772,-1.05333 16.8132,2.44133 1.7467,8.29464 -1.8026,21.01994 -4.3679,29.12659 -0.8254,2.60399 -3.1614,2.95199 -5.212,3.64666 -4.7387,0.06 -13.4053,1.24799 -16.408,-2.34533 -1.3853,-7.29598 2.1307,-20.77328 4.1813,-28.1426 0.824,-2.96266 2.668,-3.59999 4.9934,-4.72665 z"
     id="path9"
     style="stroke-width:1.33333" />
  <path
     fill="#fb5d02"
     d="m 1346.4396,517.72632 c 10.2427,-1.04799 28.9866,-1.48933 38.6706,1.25333 8.844,3.77466 6.5507,19.48929 5,26.04794 -3.6173,15.31063 -2.0253,30.41059 -18.8333,36.59857 -9.1946,1.708 -27.5866,1.21867 -36.7226,-0.75066 -11.2426,-2.56399 -8.3626,-19.16262 -6.6533,-27.3106 3.2533,-15.51596 2.4507,-28.75726 18.5386,-35.83858 z"
     id="path10"
     style="stroke-width:1.33333" />
  <path
     fill="#ffffff"
     d="m 1356.6956,531.94896 c 4.9173,-0.11734 13.0293,-1.29067 15.7013,3.04265 0.62,6.70265 -2.372,22.63995 -5.3627,29.21593 -1.1546,2.53866 -3.4319,2.41866 -5.9906,2.87733 -3.76,0.052 -11.1186,0.368 -14.2986,-1.09067 -3.4787,-5.34132 1.6133,-24.84927 4.2013,-30.76125 1.0773,-2.46 3.5173,-2.68666 5.7493,-3.28399 z"
     id="path11"
     style="stroke-width:1.33333" />
  <path
     fill="#023765"
     transform="scale(1.33333 1.33333)"
     d="M386.654 432.58C389.617 432.418 391.312 431.729 393.225 434.131C394.252 441.071 385.798 444.094 393.218 452.922C392.835 462.736 392.554 472.554 392.375 482.374L341.086 482.364L329.739 482.422C336.95 473.452 344.608 462.373 352.588 454.266C354.169 452.66 362.859 447.584 365.298 446.089C372.524 441.758 379.645 437.254 386.654 432.58Z"
     id="path12" />
  <path
     fill="#023765"
     transform="scale(1.33333 1.33333)"
     d="M422.612 432.273C424.467 432.968 459.18 477.108 463.209 482.332L440.016 482.318L399.968 482.374C399.54 473.637 399.508 463.995 399.296 455.182C406.524 450.676 416.297 439.049 422.612 432.273Z"
     id="path13" />
  <path
     fill="#023765"
     d="m 993.03118,517.63699 c 8.60802,-0.66933 18.30932,-0.60133 26.97322,-0.56266 23.0653,0.10533 15.5053,22.99327 12.46,37.90123 l -41.10388,0.12267 -0.10534,0.73333 c -0.23733,1.72133 -0.69199,3.76133 -0.79733,5.45066 -0.80933,13.10796 16.97065,7.57331 22.39725,2.65732 3.1374,-2.84266 0.68,-2.45199 5.084,-2.85199 l 13.412,0.164 c -5.9733,22.52394 -12.5093,20.49061 -34.4493,21.33328 -23.12657,0.88933 -28.81722,-4.72532 -23.6159,-27.8066 3.43599,-15.24396 2.25332,-31.13725 19.74528,-37.14124 z"
     id="path14"
     style="stroke-width:1.33333" />
  <path
     fill="#ffffff"
     d="m 997.9032,531.69162 c 6.2413,-0.684 18.0626,-2.60799 20.4146,4.35999 -0.5773,2.70799 -0.772,4.27332 -2.1653,6.73198 -6.1,-0.16133 -20.236,2.74266 -21.7613,-3.92132 0.8693,-3.55332 1.4573,-4.20265 3.512,-7.17065 z"
     id="path15"
     style="stroke-width:1.33333" />
  <path
     fill="#023765"
     transform="scale(1.33333 1.33333)"
     d="M429.524 432.499L450.899 432.533C467.887 444.278 484.492 456.907 501.541 468.613C507.729 472.862 514.371 477.592 520.19 482.297L473.317 482.32C459.67 468.253 441.787 447.516 429.524 432.499Z"
     id="path16" />
  <path
     fill="#023765"
     transform="scale(1.33333 1.33333)"
     d="M340.836 432.449C343.81 432.213 350.595 432.433 353.853 432.437C344.943 439.793 343.898 439.552 346.704 450.612C345.028 455.24 324.605 477.633 320.267 482.319L289.957 482.343L273.042 482.391C294.687 465.739 318.664 449.23 340.836 432.449Z"
     id="path17" />
  <path
     fill="#023765"
     d="m 1059.2857,517.72232 c 8.66,-0.96799 22.3759,-1.19733 30.9892,-0.34666 11.3093,1.11866 13.372,8.81464 11.5493,18.96928 -2.0506,1.45867 -15.2866,2.02 -17.5346,0.396 l -0.456,-4.31999 c -3.176,-3.20665 -18.2519,-3.84399 -20.4586,3.16 2.8987,9.26664 25.6146,5.71732 30.6199,10.8453 12.248,12.54797 2.2774,32.28659 -13.3759,35.71858 -8.952,0.15333 -18.8813,0.85733 -27.732,0.0507 -14.0439,-1.28 -13.8626,-10.50664 -12.4453,-21.01995 3.756,-0.072 15.2227,-0.68533 16.34,1.92933 2.48,5.80265 15.1053,7.30131 21.1066,3.96932 1.7493,-2.08799 2.9653,-3.01333 3.02,-5.65999 -7.632,-9.28397 -45.6212,0.14267 -34.2946,-30.68792 2.8,-7.62398 5.4907,-9.61864 12.672,-13.00397 z"
     id="path18"
     style="stroke-width:1.33333" />
  <path
     fill="#023765"
     transform="scale(1.33333 1.33333)"
     d="M388.332 373.42C384.474 377.293 376.033 388.279 370.436 386.329C367.632 381.542 380.302 367.307 384.15 364.844C388.668 361.952 404.297 366.673 409.44 367.743C417.582 369.795 424.672 381.805 429.657 388.959C433.741 385.764 441.417 378.375 445.73 378.343C452.02 383.636 432.596 399.458 428.628 399.556C423.862 398.257 420.278 393.491 416.845 389.803C414.01 393.514 407.869 401.159 405.836 404.889C399.104 405.154 389.7 405.012 383.116 404.498L400.638 377.114L388.332 373.42Z"
     id="path19" />
  <path
     fill="#023765"
     d="m 855.47419,517.75032 c 7.83198,-1.00266 23.70261,-1.43199 31.58926,-0.50533 14.20396,1.672 13.75596,12.34797 11.78663,23.51061 -5.07998,0.0587 -14.2733,1.14533 -17.80929,-2.78266 0.0293,-2.19466 0.0947,-2.43333 -0.57199,-4.48666 -3.26533,-1.93466 -15.85597,-2.76399 -18.08663,-0.71733 -4.51332,4.13999 -8.26398,27.7426 -6.92798,32.88125 2.40533,2.29867 6.88532,1.772 10.04531,1.73867 6.98798,-0.076 9.12398,0.16666 11.79864,-6.63465 l 0.33866,-0.87067 0.35467,-1.19199 c 2.87332,-1.148 13.59463,-0.77334 17.38795,-0.76667 -0.12666,0.85866 -0.26666,1.71466 -0.41999,2.56933 -1.10934,6.13065 -3.43733,14.95729 -9.13731,18.26528 -8.33065,4.83599 -45.07056,7.47465 -49.11322,-3.71732 -3.16799,-8.76798 2.47066,-33.39592 5.37199,-42.98389 2.50533,-7.66798 6.14799,-10.96397 13.3933,-14.30797 z"
     id="path20"
     style="stroke-width:1.33333" />
  <path
     fill="#023765"
     d="m 923.70335,517.75032 c 4.30399,-0.48133 8.97598,-0.55599 13.32264,-0.64399 21.19994,-0.432 33.60391,-2.28 30.03859,23.4946 -4.29332,0.136 -13.17464,1.11867 -16.57196,-1.42666 -1.696,-1.27066 -1.34933,-2.90533 -1.588,-5.26399 l -1.54933,-1.13999 c -3.89199,-0.588 -16.59195,-2.53066 -18.41728,1.54933 -2.872,6.42265 -7.17332,24.11327 -5.94932,30.78392 3.79999,3.51466 13.00397,2.21733 17.91195,1.48533 2.32133,-0.34667 3.58933,-3.69999 4.35066,-5.68265 l 0.336,-0.88933 0.24,-1.536 c 3.01599,-1.084 14.0373,-0.65067 17.87462,-0.612 -0.13333,0.74267 -0.28267,1.484 -0.44533,2.22133 -6.35332,29.32792 -25.6866,22.47461 -49.97721,21.23328 -14.92396,-1.96666 -8.46531,-23.41328 -6.85465,-32.74392 2.45733,-14.2333 3.70399,-24.72527 17.27862,-30.82926 z"
     id="path21"
     style="stroke-width:1.33333" />
  <path
     fill="#FB5D02"
     transform="scale(1.33333 1.33333)"
     d="M313.366 393.405C336.901 401.478 358.449 404.124 383.116 404.498C389.7 405.012 399.104 405.154 405.836 404.889C434.986 405.424 460.975 404.452 489.209 395.956L489.329 403.722C457.444 413.134 445.625 410.749 415.852 412.469C413.234 411.695 384.225 411.716 379.203 411.683C354.039 411.685 336.982 408.017 313.308 401.652L313.366 393.405Z"
     id="path22" />
  <path
     fill="#fb5d02"
     d="m 1461.2473,501.34237 17.4933,0.096 c -0.8933,5.36266 -1.76,10.73331 -2.5733,16.11063 l 13.9733,-0.048 -2.4667,14.5213 -14.2133,0.0147 -2.8399,14.57329 c -0.8267,4.30399 -3.7334,16.31329 -1.4667,19.65862 3.1466,1.41066 7.9733,1.08 11.5733,1.092 l -2,11.4413 -0.72,2.356 c -0.9867,0.60933 -1.5067,0.95999 -2.6667,1.08666 -46.4265,5.02532 -17.5866,-31.43859 -20.3999,-48.61455 -1.9467,-2.75466 -2.7333,-1.37066 -7.64,-2.36399 -0.3867,-1.844 1.3467,-9.91597 1.7867,-12.28264 2.3066,-2.34399 3.5333,-0.93999 8.1466,-1.98799 1.64,-1.996 3.2,-12.04264 4.0133,-15.65329 z"
     id="path23"
     style="stroke-width:1.33333" />
  <path
     fill="#023765"
     transform="scale(1.33333 1.33333)"
     d="M379.203 411.683C384.225 411.716 413.234 411.695 415.852 412.469C418.97 415.063 425.588 419.752 422.595 424.085C418.649 429.797 402.685 450.278 395.818 448.756C395.15 447.995 394.683 447.648 394.51 446.619C393.951 443.294 406.446 427.151 408.984 423.44L394.589 414.635C383.293 428.884 379.86 432.651 363.515 441.657C360.236 443.464 356.569 447.362 352.219 447.876C349.667 447.11 350.213 447.695 349.056 445.895C349.634 437.69 371.522 426.909 374.946 419.374C375.923 417.225 377.966 413.885 379.203 411.683Z"
     id="path24" />
  <path
     fill="#fb5d02"
     d="m 1435.7007,516.92099 c 4.1067,0.0187 4.6934,-0.68266 7.5067,1.24267 1.28,3.11999 -0.7467,10.03597 -1.5067,13.96929 -31.3066,-0.50133 -22.8266,16.31463 -29.1332,40.7119 -0.7734,2.99466 -1.2534,6.25865 -1.8934,9.31198 l -16.8666,-10e-4 c -1.52,-2.72533 9.88,-57.95319 11.24,-64.72918 3.5866,0.0133 15.1999,-0.64133 17.2533,0.956 l -0.4,4.66932 c 3.16,0.0333 6.08,-4.42932 12.9199,-5.94131 z"
     id="path25"
     style="stroke-width:1.33333" />
  <path
     fill="#023765"
     transform="scale(1.33333 1.33333)"
     d="M279.328 355.911C288.181 360.218 286.322 362.031 286.126 371.233C290.303 373.787 292.957 375.738 295.548 380.028C298.465 384.77 299.331 390.494 297.949 395.887C296.072 403.09 291.955 406.526 285.939 410.124L285.946 441.564C292.285 441.805 301.373 440.455 305.907 442.491C307.531 444.721 306.963 445.025 307.019 448.382C283.142 448.815 276.84 451.214 279.345 424.718C279.873 419.139 279.405 409.933 279.377 404.055C281.847 403.775 283.858 403.385 285.924 401.992C289.026 399.895 291.122 396.606 291.713 392.908C292.328 389.23 291.436 385.46 289.237 382.449C286.501 378.729 283.773 377.849 279.482 377.19L279.328 355.911Z"
     id="path26" />
  <path
     fill="#023765"
     transform="scale(1.33333 1.33333)"
     d="M425.618 353.436C429.075 352.574 432.729 353.638 435.183 356.223C437.637 358.807 438.512 362.512 437.472 365.922C436.433 369.331 433.641 371.918 430.163 372.693C424.878 373.871 419.628 370.581 418.384 365.31C417.14 360.039 420.364 354.747 425.618 353.436Z"
     id="path27" />
  <path
     fill="#FB5D02"
     transform="scale(1.33333 1.33333)"
     d="M290.582 317.479L302.039 317.404L302.261 329.182L290.47 329.046L290.582 317.479Z"
     id="path28" />
  <path
     fill="#FB5D02"
     transform="scale(1.33333 1.33333)"
     d="M268.307 326.19L278.826 326.107L278.899 337.01L268.309 336.966L268.307 326.19Z"
     id="path29" />
  <path
     fill="#FB5D02"
     transform="scale(1.33333 1.33333)"
     d="M262.137 305.585L270.79 305.63L270.912 314.445L262.078 314.471L262.137 305.585Z"
     id="path30" />
  <path
     fill="#FB5D02"
     transform="scale(1.33333 1.33333)"
     d="M287.696 339.513L290.521 339.584C293.362 341.573 294.168 346.786 290.211 348.148C288.332 348.16 287.337 348.292 285.54 347.678C282.541 343.986 282.608 340.541 287.696 339.513Z"
     id="path31" />
  <path
     fill="#FB5D02"
     transform="scale(1.33333 1.33333)"
     d="M301.42 429.941C302.877 428.599 305.146 428.696 306.484 430.156C307.822 431.617 307.72 433.886 306.257 435.221C304.799 436.552 302.538 436.451 301.205 434.995C299.871 433.539 299.967 431.278 301.42 429.941Z"
     id="path32" />
  <path
     fill="#FB5D02"
     transform="scale(1.33333 1.33333)"
     d="M300.623 349.361C302.811 349.28 303.543 349.207 305.76 349.689C307.196 351.818 306.67 352.671 306.712 355.746C304.495 355.815 303.504 355.941 301.312 355.322C300.023 353.163 300.554 352.339 300.623 349.361Z"
     id="path33" />
  <path
     fill="#FB5D02"
     transform="scale(1.33333 1.33333)"
     d="M300.677 402.578C302.764 402.462 303.71 402.282 305.753 402.844C307.198 404.989 306.658 405.912 306.685 409.017C304.547 409.064 303.488 409.202 301.419 408.485C300.172 406.327 300.659 405.477 300.677 402.578Z"
     id="path34" />
  <path
     fill="#FB5D02"
     transform="scale(1.33333 1.33333)"
     d="M300.521 362.958C302.54 362.871 304.085 362.599 305.899 363.408C307.08 365.015 306.742 367.053 306.721 369.187C304.644 369.274 303.281 369.513 301.342 368.776C300.045 366.595 300.53 365.912 300.521 362.958Z"
     id="path35" />
  <path
     fill="#FB5D02"
     transform="scale(1.33333 1.33333)"
     d="M300.505 389.212C302.625 389.138 303.413 389.129 305.505 389.435C307.162 391.511 306.617 392.089 306.787 395.343C304.708 395.417 303.281 395.654 301.35 394.911C300.139 392.929 300.559 391.84 300.505 389.212Z"
     id="path36" />
  <path
     fill="#FB5D02"
     transform="scale(1.33333 1.33333)"
     d="M300.518 376.101C302.556 376.067 303.507 376.082 305.522 376.351C307.165 378.364 306.612 378.905 306.75 382.129C304.557 382.264 303.511 382.433 301.338 381.846C300.054 379.787 300.526 378.877 300.518 376.101Z"
     id="path37" />
  <path
     fill="#FB5D02"
     transform="scale(1.33333 1.33333)"
     d="M301.402 416.766C302.694 415.435 304.818 415.396 306.158 416.68C307.498 417.963 307.551 420.087 306.278 421.437C304.991 422.799 302.841 422.854 301.488 421.557C300.135 420.261 300.096 418.11 301.402 416.766Z"
     id="path38" />
</svg>
