<?xml version="1.0" encoding="UTF-8" standalone="no"?>
<svg
   viewBox="184 295 644 414"
   version="1.1"
   id="svg22"
   sodipodi:docname="show-only-the-ticket-runner-icon-from-this-logo--a.svg"
   inkscape:version="1.4.3 (0d15f75042, 2025-12-25)"
   xmlns:inkscape="http://www.inkscape.org/namespaces/inkscape"
   xmlns:sodipodi="http://sodipodi.sourceforge.net/DTD/sodipodi-0.dtd"
   xmlns="http://www.w3.org/2000/svg"
   xmlns:svg="http://www.w3.org/2000/svg">
  <defs
     id="defs22" />
  <sodipodi:namedview
     id="namedview22"
     pagecolor="#ffffff"
     bordercolor="#000000"
     borderopacity="0.25"
     inkscape:showpageshadow="2"
     inkscape:pageopacity="0.0"
     inkscape:pagecheckerboard="0"
     inkscape:deskcolor="#d1d1d1"
     inkscape:zoom="0.76660156"
     inkscape:cx="512"
     inkscape:cy="512"
     inkscape:window-width="1920"
     inkscape:window-height="1003"
     inkscape:window-x="0"
     inkscape:window-y="0"
     inkscape:window-maximized="1"
     inkscape:current-layer="svg22" />
  <path
     fill="white"
     d="M0 0L1024 0L1024 1024L0 1024L0 0Z"
     id="path1"
     style="opacity:0" />
  <path
     fill="#003767"
     d="M326.356 349.612L645.221 349.882L739.853 349.926L769.56 349.865C775.337 349.853 781.214 349.789 786.986 350.139C793.697 350.565 801.488 357.533 802.346 364.359C803.481 373.394 803.023 384.219 803.021 393.451L802.974 452.557C794.093 452.587 787.171 453.656 780.483 460.107C763.954 476.048 770.244 509.201 794.584 513.242C797.338 513.699 800.232 513.64 803.004 513.652L803.04 574.013C803.043 578.372 803.127 582.754 803.06 587.111C802.926 595.766 804.28 603.633 797.727 610.466C795.369 612.954 792.357 614.728 789.038 615.585C783.835 616.92 771.631 616.487 765.643 616.468L738.256 616.472C733.264 612.384 727.35 606.723 722.343 602.322C721.347 601.6 721.662 601.886 720.934 600.886C722.317 600.34 728.916 600.648 730.954 600.645L764.476 600.681C769.604 600.688 781.117 601.054 785.418 599.987C789.137 596.125 787.82 576.508 787.8 570.258L787.895 527.703C772.942 522.314 763.105 513.751 758.176 498.214C754.205 485.57 755.369 471.871 761.418 460.079C767.283 448.802 775.995 442.219 787.955 438.526C787.056 422.849 788.134 406.556 787.74 390.832C787.581 384.509 789.073 371.086 785.424 366.158C780.668 364.904 754.102 365.322 747.97 365.317L669.368 365.252L304.28 365.187C304.092 363.446 304.105 361.055 304.057 359.252C313.74 365.545 321.934 358.577 326.356 349.612Z"
     id="path2" />
  <path
     fill="#003767"
     d="M502.953 579.199C508.42 579.057 514.488 579.184 520 579.19C520.01 583.714 519.936 588.238 519.777 592.76C509.232 604.116 507.875 614.714 519.619 625.777C519.515 647.961 518.545 672.246 517.506 694.46L395.25 694.426L369.557 694.469C374.033 689.666 380.557 680.735 385.022 675.388C398.529 659.211 411.538 642.012 425.119 625.95C427.308 625.424 429.846 624.651 431.837 623.555C449.979 613.567 467.46 602.15 485.201 591.457C491.064 587.924 497.925 583.703 502.953 579.199Z"
     id="path3" />
  <path
     fill="#003767"
     d="M587.263 579.252C590.543 580.011 601.124 594.722 604.021 598.4L629.343 630.311C645.976 651.107 665.149 673.429 680.932 694.405L627.436 694.383L535.5 694.397C535.325 672.892 533.561 650.765 533.418 628.986C541.464 627.4 543.554 624.408 549.204 619.004C562.095 606.674 574.133 591.107 587.263 579.252Z"
     id="path4" />
  <path
     fill="#003767"
     d="M603.032 579.83C619.326 579.449 637.644 579.967 654.073 580.029C661.658 585.212 670.298 591.957 677.907 597.451C695.57 610.218 713.307 622.883 731.118 635.444L782.895 672.051C792.721 679.013 804.5 687.001 813.851 694.429C802.491 694.859 788.103 694.451 776.539 694.442L702.362 694.349C669.678 656.982 634.06 618.333 603.032 579.83Z"
     id="path5" />
  <path
     fill="#003767"
     d="M414.354 579.243L425.984 579.235C417.575 587.849 404.087 593.868 405.103 608.076C405.525 613.987 408.538 617.953 412.792 621.711L369.75 669.958C362.581 678.009 355.227 686.669 347.809 694.419L257.25 694.455L237.082 694.54C289.797 655.905 343.009 618.569 395.643 579.428C401.81 579.283 408.17 579.302 414.354 579.243Z"
     id="path6" />
  <path
     fill="#003767"
     d="M507.619 442.671C501.48 447.962 495.656 453.69 489.915 459.406C485.876 463.428 481.662 468.559 476.753 471.522C475.226 472.444 473.825 472.638 472.07 472.455C469.823 472.221 467.832 471.173 466.522 469.304C465.141 467.333 464.739 464.758 465.14 462.412C465.71 459.081 492.569 425.076 496.552 422.468C498.757 421.025 501.895 419.764 504.554 419.664C511.236 419.415 519.148 421.743 525.81 422.955C535.959 424.803 546.334 426.336 556.364 428.732C559.676 429.524 563.214 430.555 566.141 432.337C580.962 441.364 592.414 464.163 603.213 477.967C613.919 470.599 623.192 461.815 633.515 454.229C642.807 449.792 649.324 461.759 643.129 468.132C632.075 479.505 620.248 491.949 608.044 501.818C597.708 510.176 580.165 487.136 573.709 480.382L556.73 502.603C555.387 504.354 549.68 511.447 549.056 512.908C549.795 514.58 550.219 514.876 551.467 516.162C534.822 516.002 512.312 516.281 495.954 515.273C509.219 493.179 523.25 472.687 536.649 450.974C527.189 447.962 517.213 445.334 507.619 442.671Z"
     id="path7" />
  <path
     fill="#FC5B00"
     d="M331.485 489.802C377.229 504.453 421.861 511.981 469.746 514.112C478.017 514.48 487.388 514.373 495.517 515.224L495.954 515.273C512.312 516.281 534.822 516.002 551.467 516.162C570.553 515.623 589.717 515.993 608.92 515.309C656.596 513.609 697.835 507.986 743.501 494.564L743.56 512.064C682.124 530.258 632.848 532.462 569.997 532.914C567.504 532.638 563.878 532.684 561.295 532.715C536.238 533.02 511.287 532.042 486.259 531.524C481.27 531.543 476.438 531.251 471.47 531.015C423.829 528.751 376.894 522.047 331.449 507.471L331.485 489.802Z"
     id="path8" />
  <path
     fill="#003767"
     d="M486.259 531.524C511.287 532.042 536.238 533.02 561.295 532.715C563.878 532.684 567.504 532.638 569.997 532.914C576.631 538.738 594.781 552.465 587.268 561.673C581.317 568.967 539.043 616.249 533.667 618.04C531.227 618.869 528.548 618.599 526.323 617.299C524.108 615.972 522.551 613.777 522.032 611.248C520.877 605.53 529.923 595.584 533.351 590.717C540.806 580.114 548.185 569.457 555.485 558.747C544.52 551.807 533.476 544.992 522.355 538.304C513.164 548.047 502.423 563.866 493.213 572.92C491.843 574.276 490.343 575.494 488.735 576.556C476.872 584.272 463.555 591.639 451.46 599.278C443.428 604.001 435.81 610.005 427.335 613.864C422.743 615.956 417.54 614.551 416.063 609.44C415.292 606.726 415.732 603.811 417.27 601.446C419.244 598.47 425.886 593.507 428.96 590.985L456.528 568.294C458.909 566.357 470.106 557.589 471.156 556.209C476.033 549.795 482.085 538.674 486.259 531.524Z"
     id="path9" />
  <path
     fill="#003767"
     d="M251.994 402.858C257.046 403.046 257.926 404.784 261.859 408.382C263.431 408.616 265.67 408.75 267.306 408.901C267.493 418.735 267.385 429.031 267.412 438.898C278.892 443.235 287.282 451.825 292.091 463.027C297.433 475.63 297.559 489.838 292.44 502.534C287.359 514.919 279.515 522.212 267.414 527.309L267.395 572.034C267.384 579.698 267.295 587.379 267.522 595.036C267.593 597.438 269.184 600.124 271.725 600.432C276.219 600.975 281.162 600.763 285.727 600.772L315.582 600.793C315.653 605.993 315.65 611.193 315.572 616.392C304.982 616.295 274.573 617.782 265.785 615.515C262.7 614.726 259.88 613.134 257.609 610.903C252.704 606.146 251.879 601.177 251.899 594.684C251.92 587.544 251.941 580.388 251.948 573.248L251.987 514.025C259.311 513.476 264.852 512.606 270.618 507.357C283.194 495.899 284.298 473.015 272.493 460.621C266.369 454.192 260.35 452.49 251.868 452.302L251.994 402.858Z"
     id="path10" />
  <path
     fill="#003767"
     d="M594.739 395.68C607.112 392.881 619.395 400.699 622.099 413.093C624.802 425.486 616.89 437.709 604.476 440.317C592.196 442.897 580.134 435.09 577.46 422.83C574.786 410.57 582.5 398.448 594.739 395.68Z"
     id="path11" />
  <path
     fill="#FC5B00"
     d="M278.002 313.475L304.482 313.443C304.6 322.074 304.617 330.706 304.532 339.337C295.695 339.203 286.855 339.208 278.018 339.351L278.002 313.475Z"
     id="path12" />
  <path
     fill="#FC5B00"
     d="M226.923 333.978L251.037 333.968L251.088 358.554C243.139 358.432 234.96 358.523 226.992 358.515L226.923 333.978Z"
     id="path13" />
  <path
     fill="#FC5B00"
     d="M263.709 364.979L282.552 365.059C282.577 368.711 282.861 380.918 282.304 383.785L263.89 383.757L263.709 364.979Z"
     id="path14" />
  <path
     fill="#FC5B00"
     d="M199.194 310.566L217.992 310.542L218.074 329.158C211.881 329.069 205.564 329.125 199.359 329.124C199.221 323.001 199.244 316.704 199.194 310.566Z"
     id="path15" />
  <path
     fill="#FC5B00"
     d="M301.18 572.049L315.469 572.008L315.471 586.444L301.118 586.485C301.068 581.673 301.089 576.86 301.18 572.049Z"
     id="path16" />
  <path
     fill="#FC5B00"
     d="M304.086 510.757L315.481 510.648C315.45 513.698 316.226 523.188 314.714 524.937L313.125 525.029L301.342 525.028C301.254 521.86 300.522 514.124 301.756 511.383C302.071 510.684 302.941 510.879 304.086 510.757Z"
     id="path17" />
  <path
     fill="#FC5B00"
     d="M301.14 541.387L315.495 541.387L315.428 555.406L301.182 555.39C301.041 550.835 301.133 545.967 301.14 541.387Z"
     id="path18" />
  <path
     fill="#FC5B00"
     d="M301.377 479.845L315.498 479.9L315.492 494.195C310.87 494.04 306.021 494.048 301.378 493.982L301.377 479.845Z"
     id="path19" />
  <path
     fill="#FC5B00"
     d="M301.489 448.954L315.507 448.972L315.525 463.135L301.463 463.022L301.489 448.954Z"
     id="path20" />
  <path
     fill="#FC5B00"
     d="M301.453 418.41L315.493 418.409L315.499 432.506L301.464 432.483L301.453 418.41Z"
     id="path21" />
  <path
     fill="#FC5B00"
     d="M301.481 387.513L315.497 387.528L315.495 401.556L301.439 401.55L301.481 387.513Z"
     id="path22" />
</svg>
